<svg width="116" height="115" viewBox="0 0 116 115" fill="none" xmlns="http://www.w3.org/2000/svg">
<path d="M96.3332 19.1667H29.2498C23.9646 19.1667 19.6665 23.4649 19.6665 28.7501V52.7084H29.2498V38.3334L59.9165 61.3334C60.7462 61.9547 61.7549 62.2906 62.7915 62.2906C63.8281 62.2906 64.8368 61.9547 65.6665 61.3334L96.3332 38.3334V81.4584H57.9998V91.0417H96.3332C101.618 91.0417 105.917 86.7436 105.917 81.4584V28.7501C105.917 23.4649 101.618 19.1667 96.3332 19.1667ZM62.7915 51.5105L32.4411 28.7501H93.1419L62.7915 51.5105Z" fill="#6933A0"/>
<path d="M10.0835 57.5H43.6252V67.0833H10.0835V57.5ZM19.6668 71.875H48.4168V81.4583H19.6668V71.875ZM34.0418 86.25H53.2085V95.8333H34.0418V86.25Z" fill="#6933A0"/>
</svg>
