<svg width="38" height="37" viewBox="0 0 38 37" fill="none" xmlns="http://www.w3.org/2000/svg">
<path d="M28.0782 6.12866C25.4583 6.12866 23.8649 6.63426 22.9456 7.06324C21.7659 6.48105 20.4177 6.12866 18.8856 6.12866C17.3535 6.12866 16.0052 6.48105 14.8255 7.06324C13.9062 6.63426 12.3129 6.12866 9.69297 6.12866C5.09667 6.12866 2.03247 18.3855 2.03247 21.4497C2.03247 22.7213 4.05484 23.8857 6.84326 24.3606C7.82381 27.7925 12.4507 30.4124 18.1195 30.6423V24.0849C17.2156 23.518 15.8214 22.4915 15.8214 21.4497C15.8214 19.9176 18.8856 19.9176 18.8856 19.9176C18.8856 19.9176 21.9498 19.9176 21.9498 21.4497C21.9498 22.4915 20.5556 23.518 19.6516 24.0849V30.6423C25.3204 30.4124 29.9473 27.7925 30.9279 24.3606C33.7163 23.8857 35.7387 22.7213 35.7387 21.4497C35.7387 18.3855 32.6745 6.12866 28.0782 6.12866ZM6.85858 21.2505C6.09253 21.0666 5.49502 20.8521 5.09667 20.6836C5.47969 16.4397 8.46729 9.8057 9.76957 9.19286C10.5969 9.19286 11.2251 9.28479 11.7919 9.36139C8.57454 12.9005 7.30289 18.4467 6.85858 21.2505M14.2893 18.3855C13.8829 18.3855 13.4932 18.224 13.2059 17.9367C12.9186 17.6494 12.7572 17.2597 12.7572 16.8534C12.7572 16.026 13.4466 15.3213 14.2893 15.3213C14.6956 15.3213 15.0853 15.4827 15.3726 15.77C15.6599 16.0573 15.8214 16.447 15.8214 16.8534C15.8214 17.7113 15.1319 18.3855 14.2893 18.3855ZM23.4819 18.3855C23.0755 18.3855 22.6858 18.224 22.3985 17.9367C22.1112 17.6494 21.9498 17.2597 21.9498 16.8534C21.9498 16.026 22.6392 15.3213 23.4819 15.3213C23.8882 15.3213 24.2779 15.4827 24.5652 15.77C24.8525 16.0573 25.014 16.447 25.014 16.8534C25.014 17.7113 24.3245 18.3855 23.4819 18.3855ZM30.9125 21.2505C30.4682 18.4467 29.1966 12.9005 25.9792 9.36139C26.5461 9.28479 27.1742 9.19286 28.0016 9.19286C29.3038 9.8057 32.2914 16.4397 32.6745 20.6836C32.2914 20.8521 31.6939 21.0666 30.9125 21.2505V21.2505Z" fill="#6933A0"/>
</svg>
